<svg xmlns="http://www.w3.org/2000/svg" width="40" height="40" viewBox="0 0 40 40">
  <g id="Group_7" data-name="Group 7" transform="translate(-199.266 -199.267)">
    <path id="Path_10" data-name="Path 10" d="M236.584,209.228a19.918,19.918,0,0,0-7.278-7.279,20.131,20.131,0,0,0-20.079,0,19.9,19.9,0,0,0-7.278,7.279,20.126,20.126,0,0,0,0,20.078,19.928,19.928,0,0,0,7.279,7.279,20.131,20.131,0,0,0,20.079,0,19.91,19.91,0,0,0,7.278-7.279,20.129,20.129,0,0,0,0-20.078Zm-17.318-7.044a16.459,16.459,0,0,1,11.276,4.27l-.325.456a11.459,11.459,0,0,1-.977,1.055,16.8,16.8,0,0,1-1.705,1.484,22.8,22.8,0,0,1-2.514,1.6,24.128,24.128,0,0,1-3.385,1.575,74.414,74.414,0,0,0-6.406-9.948A17.218,17.218,0,0,1,219.266,202.184Zm-13.385,6.483a16.857,16.857,0,0,1,6.094-4.843,89.613,89.613,0,0,1,6.354,9.844,61.789,61.789,0,0,1-15.781,2.083A16.9,16.9,0,0,1,205.881,208.667Zm-2.552,16.759a16.755,16.755,0,0,1-1.146-6.159,4.274,4.274,0,0,1,.026-.547,60.9,60.9,0,0,0,17.526-2.422q.834,1.614,1.381,2.891a2.166,2.166,0,0,1-.339.117l-.339.091-.964.339a19.96,19.96,0,0,0-2.591,1.249q-1.6.887-3.4,2.11a23.257,23.257,0,0,0-3.711,3.243,21.821,21.821,0,0,0-3.216,4.336A17.1,17.1,0,0,1,203.329,225.426Zm15.937,10.925a16.761,16.761,0,0,1-10.885-3.907l.39.287a13.941,13.941,0,0,1,2.683-3.854,22.647,22.647,0,0,1,3.411-2.983,33.713,33.713,0,0,1,3.568-2.135q1.928-1,2.63-1.276t1.12-.43l.052-.026h.052A70.4,70.4,0,0,1,225.933,235,17.1,17.1,0,0,1,219.266,236.351Zm14.376-7.852a17.078,17.078,0,0,1-4.817,4.935,73.423,73.423,0,0,0-3.334-12.214,24.6,24.6,0,0,1,10.651.755A16.858,16.858,0,0,1,233.642,228.5Zm2.447-9.466q-.26-.053-.651-.117t-.951-.157c-.372-.06-.79-.117-1.249-.169s-.951-.1-1.472-.143-1.077-.078-1.666-.1-1.19-.039-1.8-.039-1.246.017-1.914.052-1.314.1-1.939.182a2.989,2.989,0,0,1-.2-.43c-.078-.2-.135-.351-.168-.456q-.5-1.093-1.147-2.473a28.746,28.746,0,0,0,6.029-3.373,21.593,21.593,0,0,0,1.849-1.576,14.907,14.907,0,0,0,1.133-1.158c.174-.218.339-.43.495-.638l.026-.027a16.7,16.7,0,0,1,3.88,10.678Z"/>
  </g>
</svg>
