<svg xmlns="http://www.w3.org/2000/svg" width="40" height="40" viewBox="0 0 40 40">
  <g id="Group_6" data-name="Group 6" transform="translate(-64.531 -64.531)">
    <path id="Path_7" data-name="Path 7" d="M93.492,64.531H75.569A11.051,11.051,0,0,0,64.531,75.57V93.492a11.051,11.051,0,0,0,11.038,11.039H93.492a11.051,11.051,0,0,0,11.039-11.039V75.57A11.051,11.051,0,0,0,93.492,64.531Zm7.49,28.961a7.5,7.5,0,0,1-7.49,7.49H75.569a7.5,7.5,0,0,1-7.489-7.49V75.57a7.5,7.5,0,0,1,7.489-7.49H93.492a7.5,7.5,0,0,1,7.49,7.49V93.492Z"/>
    <path id="Path_8" data-name="Path 8" d="M84.531,74.224A10.307,10.307,0,1,0,94.838,84.531,10.319,10.319,0,0,0,84.531,74.224Zm0,17.065a6.758,6.758,0,1,1,6.758-6.758A6.766,6.766,0,0,1,84.531,91.289Z"/>
    <path id="Path_9" data-name="Path 9" d="M95.27,71.215a2.6,2.6,0,1,0,1.841.762A2.612,2.612,0,0,0,95.27,71.215Z"/>
  </g>
</svg>
